<mxfile host="65bd71144e">
    <diagram id="-K7a5g4d3zRBL6kz0TVa" name="Page-1">
        <mxGraphModel dx="1053" dy="748" grid="1" gridSize="10" guides="1" tooltips="1" connect="1" arrows="1" fold="1" page="1" pageScale="1" pageWidth="827" pageHeight="1169" math="0" shadow="0">
            <root>
                <mxCell id="0"/>
                <mxCell id="1" parent="0"/>
                <mxCell id="40" value="&lt;font color=&quot;#999999&quot;&gt;重要度低 / 良い立場&lt;/font&gt;" style="rounded=0;whiteSpace=wrap;html=1;fillColor=none;verticalAlign=middle;fontSize=12;spacing=0;strokeColor=none;" parent="1" vertex="1">
                    <mxGeometry x="280" y="430" width="200" height="20" as="geometry"/>
                </mxCell>
                <mxCell id="41" value="重要度低 / 悪い立場" style="rounded=0;whiteSpace=wrap;html=1;fillColor=none;verticalAlign=middle;fontSize=12;fontColor=#999999;spacing=0;strokeColor=none;" parent="1" vertex="1">
                    <mxGeometry x="80.00000000000001" y="430" width="200" height="20" as="geometry"/>
                </mxCell>
                <mxCell id="45" value="重要度高 / 悪い立場" style="rounded=0;whiteSpace=wrap;html=1;fillColor=none;verticalAlign=middle;fontSize=12;fontColor=#999999;spacing=0;spacingTop=0;strokeColor=none;" parent="1" vertex="1">
                    <mxGeometry x="80.00000000000001" y="30" width="200" height="20" as="geometry"/>
                </mxCell>
                <mxCell id="46" value="重要度高 / 良い立場" style="rounded=0;whiteSpace=wrap;html=1;fillColor=none;verticalAlign=middle;fontSize=12;fontColor=#999999;spacing=0;spacingTop=0;strokeColor=none;" parent="1" vertex="1">
                    <mxGeometry x="280" y="30" width="200" height="20" as="geometry"/>
                </mxCell>
                <mxCell id="4" value="重要度" style="rounded=0;whiteSpace=wrap;html=1;fillColor=none;strokeColor=none;rotation=-90;verticalAlign=bottom;flipH=0;flipV=0;spacing=0;fontSize=24;" parent="1" vertex="1">
                    <mxGeometry x="-180" y="220" width="400" height="40" as="geometry"/>
                </mxCell>
                <mxCell id="7" value="1" style="whiteSpace=wrap;html=1;fillColor=none;strokeColor=none;spacing=0;fontSize=24;" parent="1" vertex="1">
                    <mxGeometry x="80.00000000000001" y="440" width="40" height="40" as="geometry"/>
                </mxCell>
                <mxCell id="8" value="2" style="whiteSpace=wrap;html=1;fillColor=none;strokeColor=none;spacing=0;fontSize=24;" parent="1" vertex="1">
                    <mxGeometry x="120.00000000000001" y="440" width="40" height="40" as="geometry"/>
                </mxCell>
                <mxCell id="9" value="3" style="whiteSpace=wrap;html=1;fillColor=none;strokeColor=none;spacing=0;fontSize=24;" parent="1" vertex="1">
                    <mxGeometry x="160" y="440" width="40" height="40" as="geometry"/>
                </mxCell>
                <mxCell id="10" value="4" style="whiteSpace=wrap;html=1;fillColor=none;strokeColor=none;spacing=0;fontSize=24;" parent="1" vertex="1">
                    <mxGeometry x="200" y="440" width="40" height="40" as="geometry"/>
                </mxCell>
                <mxCell id="11" value="5" style="whiteSpace=wrap;html=1;fillColor=none;strokeColor=none;spacing=0;fontSize=24;" parent="1" vertex="1">
                    <mxGeometry x="240" y="440" width="40" height="40" as="geometry"/>
                </mxCell>
                <mxCell id="12" value="6" style="whiteSpace=wrap;html=1;fillColor=none;strokeColor=none;spacing=0;fontSize=24;" parent="1" vertex="1">
                    <mxGeometry x="280" y="440" width="40" height="40" as="geometry"/>
                </mxCell>
                <mxCell id="13" value="7" style="whiteSpace=wrap;html=1;fillColor=none;strokeColor=none;spacing=0;fontSize=24;" parent="1" vertex="1">
                    <mxGeometry x="320" y="440" width="40" height="40" as="geometry"/>
                </mxCell>
                <mxCell id="14" value="8" style="whiteSpace=wrap;html=1;fillColor=none;strokeColor=none;spacing=0;fontSize=24;" parent="1" vertex="1">
                    <mxGeometry x="360" y="440" width="40" height="40" as="geometry"/>
                </mxCell>
                <mxCell id="15" value="9" style="whiteSpace=wrap;html=1;fillColor=none;strokeColor=none;spacing=0;fontSize=24;" parent="1" vertex="1">
                    <mxGeometry x="400" y="440" width="40" height="40" as="geometry"/>
                </mxCell>
                <mxCell id="16" value="10" style="whiteSpace=wrap;html=1;fillColor=none;strokeColor=none;spacing=0;fontSize=24;" parent="1" vertex="1">
                    <mxGeometry x="440" y="440" width="40" height="40" as="geometry"/>
                </mxCell>
                <mxCell id="17" value="0" style="whiteSpace=wrap;html=1;fillColor=none;strokeColor=none;spacing=0;fontSize=24;" parent="1" vertex="1">
                    <mxGeometry x="40.000000000000014" y="440" width="40" height="40" as="geometry"/>
                </mxCell>
                <mxCell id="18" value="2" style="whiteSpace=wrap;html=1;fillColor=none;strokeColor=none;spacing=0;fontSize=24;" parent="1" vertex="1">
                    <mxGeometry x="40.000000000000014" y="360" width="40" height="40" as="geometry"/>
                </mxCell>
                <mxCell id="19" value="3" style="whiteSpace=wrap;html=1;fillColor=none;strokeColor=none;spacing=0;fontSize=24;" parent="1" vertex="1">
                    <mxGeometry x="40.000000000000014" y="320" width="40" height="40" as="geometry"/>
                </mxCell>
                <mxCell id="20" value="4" style="whiteSpace=wrap;html=1;fillColor=none;strokeColor=none;spacing=0;fontSize=24;" parent="1" vertex="1">
                    <mxGeometry x="40.000000000000014" y="280" width="40" height="40" as="geometry"/>
                </mxCell>
                <mxCell id="21" value="5" style="whiteSpace=wrap;html=1;fillColor=none;strokeColor=none;spacing=0;fontSize=24;" parent="1" vertex="1">
                    <mxGeometry x="40.000000000000014" y="240" width="40" height="40" as="geometry"/>
                </mxCell>
                <mxCell id="22" value="6" style="whiteSpace=wrap;html=1;fillColor=none;strokeColor=none;spacing=0;fontSize=24;" parent="1" vertex="1">
                    <mxGeometry x="40.000000000000014" y="200" width="40" height="40" as="geometry"/>
                </mxCell>
                <mxCell id="23" value="7" style="whiteSpace=wrap;html=1;fillColor=none;strokeColor=none;spacing=0;fontSize=24;" parent="1" vertex="1">
                    <mxGeometry x="40.000000000000014" y="160" width="40" height="40" as="geometry"/>
                </mxCell>
                <mxCell id="24" value="8" style="whiteSpace=wrap;html=1;fillColor=none;strokeColor=none;spacing=0;fontSize=24;" parent="1" vertex="1">
                    <mxGeometry x="40.000000000000014" y="120" width="40" height="40" as="geometry"/>
                </mxCell>
                <mxCell id="25" value="9" style="whiteSpace=wrap;html=1;fillColor=none;strokeColor=none;spacing=0;fontSize=24;" parent="1" vertex="1">
                    <mxGeometry x="40.000000000000014" y="80" width="40" height="40" as="geometry"/>
                </mxCell>
                <mxCell id="26" value="10" style="whiteSpace=wrap;html=1;fillColor=none;strokeColor=none;spacing=0;fontSize=24;" parent="1" vertex="1">
                    <mxGeometry x="40.000000000000014" y="40" width="40" height="40" as="geometry"/>
                </mxCell>
                <mxCell id="27" value="立場" style="rounded=0;fillColor=none;strokeColor=none;rotation=0;verticalAlign=middle;flipH=0;flipV=0;spacing=0;fontColor=default;whiteSpace=wrap;html=1;labelPosition=center;verticalLabelPosition=middle;align=center;spacingTop=-4;fontSize=24;" parent="1" vertex="1">
                    <mxGeometry x="80.00000000000001" y="480" width="400" height="40" as="geometry"/>
                </mxCell>
                <mxCell id="28" value="A" style="whiteSpace=wrap;html=1;fillColor=none;strokeColor=none;spacing=0;fontSize=24;" parent="1" vertex="1">
                    <mxGeometry x="360" y="240" width="40" height="40" as="geometry"/>
                </mxCell>
                <mxCell id="29" value="B" style="whiteSpace=wrap;html=1;fillColor=none;strokeColor=none;spacing=0;fontSize=24;" parent="1" vertex="1">
                    <mxGeometry x="280" y="360" width="40" height="40" as="geometry"/>
                </mxCell>
                <mxCell id="30" value="1" style="whiteSpace=wrap;html=1;fillColor=none;strokeColor=none;spacing=0;fontSize=24;" parent="1" vertex="1">
                    <mxGeometry x="40.000000000000014" y="400" width="40" height="40" as="geometry"/>
                </mxCell>
                <mxCell id="31" value="C" style="whiteSpace=wrap;html=1;fillColor=none;strokeColor=none;spacing=0;fontSize=24;" parent="1" vertex="1">
                    <mxGeometry x="120.00000000000001" y="40" width="40" height="40" as="geometry"/>
                </mxCell>
                <mxCell id="32" value="D" style="whiteSpace=wrap;html=1;fillColor=none;strokeColor=none;spacing=0;fontSize=24;" parent="1" vertex="1">
                    <mxGeometry x="80.00000000000001" y="280" width="40" height="40" as="geometry"/>
                </mxCell>
                <mxCell id="33" value="E" style="whiteSpace=wrap;html=1;fillColor=none;strokeColor=none;spacing=0;fontSize=24;" parent="1" vertex="1">
                    <mxGeometry x="240" y="200" width="40" height="40" as="geometry"/>
                </mxCell>
                <mxCell id="34" value="F" style="whiteSpace=wrap;html=1;fillColor=none;strokeColor=none;spacing=0;fontSize=24;" parent="1" vertex="1">
                    <mxGeometry x="160" y="120" width="40" height="40" as="geometry"/>
                </mxCell>
                <mxCell id="35" value="G" style="whiteSpace=wrap;html=1;fillColor=none;strokeColor=none;spacing=0;fontSize=24;" parent="1" vertex="1">
                    <mxGeometry x="440" y="80" width="40" height="40" as="geometry"/>
                </mxCell>
                <mxCell id="36" value="H" style="whiteSpace=wrap;html=1;fillColor=none;strokeColor=none;spacing=0;fontSize=24;" parent="1" vertex="1">
                    <mxGeometry x="200" y="320" width="40" height="40" as="geometry"/>
                </mxCell>
                <mxCell id="37" value="I" style="whiteSpace=wrap;html=1;fillColor=none;strokeColor=none;spacing=0;fontSize=24;" parent="1" vertex="1">
                    <mxGeometry x="320" y="400" width="40" height="40" as="geometry"/>
                </mxCell>
                <mxCell id="38" value="J" style="whiteSpace=wrap;html=1;fillColor=none;strokeColor=none;spacing=0;fontSize=24;" parent="1" vertex="1">
                    <mxGeometry x="400" y="160" width="40" height="40" as="geometry"/>
                </mxCell>
                <mxCell id="47" value="" style="endArrow=none;html=1;fontSize=24;fontColor=#999999;" parent="1" edge="1">
                    <mxGeometry width="50" height="50" relative="1" as="geometry">
                        <mxPoint x="80.00000000000001" y="240" as="sourcePoint"/>
                        <mxPoint x="480" y="240" as="targetPoint"/>
                    </mxGeometry>
                </mxCell>
                <mxCell id="48" value="" style="endArrow=none;html=1;fontSize=24;fontColor=#999999;" parent="1" edge="1">
                    <mxGeometry width="50" height="50" relative="1" as="geometry">
                        <mxPoint x="280" y="40" as="sourcePoint"/>
                        <mxPoint x="280" y="440" as="targetPoint"/>
                    </mxGeometry>
                </mxCell>
            </root>
        </mxGraphModel>
    </diagram>
</mxfile>